<svg width="64" height="64" viewBox="0 0 64 64" fill="none" xmlns="http://www.w3.org/2000/svg">
<g filter="url(#filter0_i_1_108)">
<path d="M13.1501 49.6925C9.96487 49.6925 7.38354 52.2729 7.38354 55.4584C7.38354 58.6441 9.96487 61.2245 13.1501 61.2245C16.3365 61.2245 18.9172 58.6441 18.9172 55.4584C18.9172 52.2729 16.3365 49.6925 13.1501 49.6925ZM13.1501 57.9652C11.7655 57.9652 10.6435 56.8431 10.6435 55.4584C10.6435 54.0731 11.7655 52.9516 13.1501 52.9516C14.5349 52.9516 15.6577 54.0731 15.6577 55.4584C15.6577 56.8431 14.5349 57.9652 13.1501 57.9652Z" fill="#03121D"/>
</g>
<path d="M7.48354 55.4584C7.48354 52.3281 10.0201 49.7925 13.1501 49.7925C16.2813 49.7925 18.8172 52.3281 18.8172 55.4584C18.8172 58.5889 16.2813 61.1245 13.1501 61.1245C10.0201 61.1245 7.48354 58.5889 7.48354 55.4584ZM10.5435 55.4584C10.5435 56.8983 11.7102 58.0652 13.1501 58.0652C14.5901 58.0652 15.7577 56.8983 15.7577 55.4584C15.7577 54.0178 14.5901 52.8516 13.1501 52.8516C11.7102 52.8516 10.5435 54.0179 10.5435 55.4584Z" stroke="#040A0F" stroke-width="0.2"/>
<g filter="url(#filter1_i_1_108)">
<path d="M43.5581 49.6925C40.3729 49.6925 37.7917 52.2729 37.7917 55.4584C37.7917 58.6441 40.3729 61.2245 43.5581 61.2245C46.7446 61.2245 49.3252 58.6441 49.3252 55.4584C49.3252 52.2729 46.7446 49.6925 43.5581 49.6925ZM43.5581 57.9652C42.1735 57.9652 41.0517 56.8431 41.0517 55.4584C41.0517 54.0731 42.1735 52.9516 43.5581 52.9516C44.9431 52.9516 46.0659 54.0731 46.0659 55.4584C46.0659 56.8431 44.9431 57.9652 43.5581 57.9652Z" fill="#03121D"/>
</g>
<path d="M37.8917 55.4584C37.8917 52.3281 40.4281 49.7925 43.5581 49.7925C46.6894 49.7925 49.2252 52.3281 49.2252 55.4584C49.2252 58.5889 46.6894 61.1245 43.5581 61.1245C40.4281 61.1245 37.8917 58.5889 37.8917 55.4584ZM40.9517 55.4584C40.9517 56.8983 42.1182 58.0652 43.5581 58.0652C44.9983 58.0652 46.1659 56.8983 46.1659 55.4584C46.1659 54.0178 44.9983 52.8516 43.5581 52.8516C42.1182 52.8516 40.9517 54.0179 40.9517 55.4584Z" stroke="#040A0F" stroke-width="0.2"/>
<g filter="url(#filter2_i_1_108)">
<path fill-rule="evenodd" clip-rule="evenodd" d="M54.8578 40.5758C52.7434 40.0261 51.5335 39.6805 50.7032 38.077L47.927 32.456C47.0964 30.8526 44.9392 29.5405 43.1339 29.5405H39.3367C39.3367 29.5405 38.8259 29.5512 38.8259 29.0371V24.3229C38.8259 22.4953 37.7917 21 35.5918 21H4.64491C1.49533 21 0 22.4955 0 24.3229V27.2772V35.7605V36.7765V45.3455V52.4843C0 54.3117 1.49533 55.8072 3.32286 55.8072H5.1583C5.57456 55.8072 5.63587 55.5753 5.63587 55.4589C5.63587 51.3157 9.00698 47.9454 13.1503 47.9454C17.2939 47.9454 20.6648 51.316 20.6648 55.4589C20.6648 55.5758 20.6316 55.8072 20.9499 55.8072H35.7622C36.0558 55.8072 36.0439 55.5597 36.0439 55.4589C36.0439 51.3157 39.4148 47.9454 43.5583 47.9454C47.7017 47.9454 51.0727 51.316 51.0727 55.4589V55.4642C51.0726 55.5828 51.0725 55.8072 51.2535 55.8072H54.988C56.7942 55.8072 58.2716 54.3298 58.2716 52.5237V46.2855C58.2718 41.032 56.613 41.032 54.8578 40.5758ZM39.2632 40.2836H48.6094C48.977 40.2836 49.1241 40.0767 49.0364 39.9593C48.9173 39.799 48.8061 39.6203 48.7021 39.4189L46.2316 34.4173C45.4928 32.9905 43.5734 31.8231 41.9666 31.8231H39.2998C38.804 31.8231 38.8258 32.122 38.8258 32.122V39.9076C38.8258 39.9076 38.8771 40.2836 39.2632 40.2836Z" fill="#03121D"/>
</g>
<path d="M50.6135 38.1213L50.6144 38.123C51.0388 38.9426 51.5634 39.4447 52.2521 39.8099C52.935 40.172 53.7783 40.3984 54.8326 40.6725C54.9605 40.7058 55.0867 40.7365 55.2109 40.7667C55.9552 40.9477 56.6267 41.111 57.1482 41.6981C57.7563 42.3826 58.1717 43.663 58.1716 46.2855V52.5237C58.1716 54.2745 56.739 55.7072 54.988 55.7072H51.2535C51.231 55.7072 51.2214 55.701 51.2158 55.6959C51.208 55.689 51.1986 55.6752 51.1905 55.6498C51.1735 55.5963 51.1726 55.5267 51.1727 55.4643V55.4589C51.1727 51.2608 47.7569 47.8454 43.5583 47.8454C39.3596 47.8454 35.9439 51.2605 35.9439 55.4589L35.9439 55.4667C35.9439 55.5216 35.944 55.5811 35.9221 55.6296C35.912 55.6519 35.8981 55.6692 35.8776 55.6818C35.8566 55.6948 35.8215 55.7072 35.7622 55.7072H20.9499C20.8818 55.7072 20.8426 55.6948 20.8202 55.6821C20.7995 55.6705 20.7878 55.6555 20.7797 55.637C20.7708 55.6165 20.7661 55.5902 20.7645 55.5578C20.7634 55.5352 20.7638 55.5167 20.7643 55.4966C20.7645 55.4849 20.7648 55.4727 20.7648 55.4589C20.7648 51.2608 17.3491 47.8454 13.1503 47.8454C8.95177 47.8454 5.53587 51.2605 5.53587 55.4589C5.53587 55.5016 5.52443 55.5607 5.47992 55.6087C5.437 55.6549 5.34794 55.7072 5.1583 55.7072H3.32286C1.55056 55.7072 0.1 54.2565 0.1 52.4843V45.3455V36.7765V35.7605V27.2772V24.3229C0.1 23.4387 0.46062 22.6375 1.20309 22.0548C1.94778 21.4705 3.08479 21.1 4.64491 21.1H35.5918C36.6676 21.1 37.4472 21.4647 37.959 22.0424C38.4725 22.6221 38.7259 23.427 38.7259 24.3229V29.0371C38.7259 29.183 38.7624 29.2987 38.8227 29.3884C38.8826 29.4776 38.9618 29.535 39.0379 29.5717C39.1135 29.6082 39.1879 29.6251 39.2424 29.6331C39.2699 29.6371 39.293 29.639 39.3097 29.6399C39.318 29.6403 39.3248 29.6405 39.3297 29.6405L39.3357 29.6405L39.3367 29.6405H39.3373H43.1339C44.014 29.6405 44.9868 29.961 45.844 30.4824C46.7009 31.0036 47.4327 31.7198 47.8377 32.5012C47.8379 32.5015 47.838 32.5017 47.8382 32.502L50.6135 38.1213ZM38.7267 39.9212L38.8258 39.9076L49.0364 39.9593L49.1166 39.8996C49.1166 39.8996 49.1166 39.8996 49.1166 39.8995C49.0012 39.7443 48.893 39.5705 48.7914 39.3739C48.7912 39.3736 48.791 39.3733 48.7909 39.373L46.3212 34.373L46.3204 34.3713C45.9406 33.6379 45.2612 32.977 44.4766 32.4997C43.6919 32.0224 42.7926 31.7231 41.9666 31.7231H39.2998C39.0315 31.7231 38.8783 31.8049 38.7971 31.9122C38.758 31.9639 38.7402 32.0159 38.7321 32.0554C38.7281 32.0751 38.7265 32.092 38.7259 32.1046C38.7256 32.111 38.7256 32.1163 38.7257 32.1204L38.7258 32.1239V39.9076H38.7248L38.7267 39.9212Z" stroke="#040A0F" stroke-width="0.2"/>
<path d="M46.8951 7.68278L46.8882 7.67642L46.8811 7.67019C46.6601 7.47443 46.4037 7.32447 46.1285 7.22506C45.8534 7.12568 45.562 7.07772 45.2704 7.08234C44.9787 7.08697 44.689 7.14415 44.417 7.25247C44.1451 7.36083 43.8936 7.51934 43.6792 7.72283C43.4645 7.92648 43.2908 8.17171 43.1725 8.4469C43.054 8.72239 42.9947 9.01986 43.0004 9.32138C43.0061 9.62289 43.0766 9.91775 43.2049 10.1884C43.3317 10.4558 43.5113 10.6921 43.7292 10.8868L48.639 15.3871C48.6396 15.3877 48.6402 15.3882 48.6408 15.3887C48.8559 15.5872 49.1071 15.7405 49.3778 15.8439C49.6492 15.9475 49.9376 16 50.2271 16C50.5166 16 50.805 15.9475 51.0764 15.8439C51.3471 15.7405 51.5983 15.5872 51.8134 15.3887C51.814 15.3882 51.8146 15.3877 51.8152 15.3871L62.2508 5.82171C62.4772 5.62624 62.6639 5.38598 62.7947 5.11231C62.929 4.83129 63 4.52381 63 4.21014C63 3.89647 62.929 3.58899 62.7947 3.30798C62.6638 3.03403 62.4768 2.79355 62.2501 2.59796C62.0382 2.40598 61.7923 2.25715 61.5276 2.15609C61.2562 2.05245 60.9678 2 60.6783 2C60.3888 2 60.1004 2.05245 59.829 2.15609C59.5581 2.25952 59.3069 2.413 59.0916 2.61156C59.0912 2.61199 59.0907 2.61242 59.0902 2.61285L50.2277 10.7473L46.8951 7.68278Z" fill="#EB211A" stroke="#EB211A" stroke-width="2"/>
<defs>
<filter id="filter0_i_1_108" x="3.38354" y="49.6925" width="15.5336" height="15.532" filterUnits="userSpaceOnUse" color-interpolation-filters="sRGB">
<feFlood flood-opacity="0" result="BackgroundImageFix"/>
<feBlend mode="normal" in="SourceGraphic" in2="BackgroundImageFix" result="shape"/>
<feColorMatrix in="SourceAlpha" type="matrix" values="0 0 0 0 0 0 0 0 0 0 0 0 0 0 0 0 0 0 127 0" result="hardAlpha"/>
<feOffset dx="-4" dy="4"/>
<feGaussianBlur stdDeviation="8"/>
<feComposite in2="hardAlpha" operator="arithmetic" k2="-1" k3="1"/>
<feColorMatrix type="matrix" values="0 0 0 0 0.470313 0 0 0 0 0.707543 0 0 0 0 0.875 0 0 0 0.35 0"/>
<feBlend mode="normal" in2="shape" result="effect1_innerShadow_1_108"/>
</filter>
<filter id="filter1_i_1_108" x="33.7917" y="49.6925" width="15.5334" height="15.532" filterUnits="userSpaceOnUse" color-interpolation-filters="sRGB">
<feFlood flood-opacity="0" result="BackgroundImageFix"/>
<feBlend mode="normal" in="SourceGraphic" in2="BackgroundImageFix" result="shape"/>
<feColorMatrix in="SourceAlpha" type="matrix" values="0 0 0 0 0 0 0 0 0 0 0 0 0 0 0 0 0 0 127 0" result="hardAlpha"/>
<feOffset dx="-4" dy="4"/>
<feGaussianBlur stdDeviation="8"/>
<feComposite in2="hardAlpha" operator="arithmetic" k2="-1" k3="1"/>
<feColorMatrix type="matrix" values="0 0 0 0 0.470313 0 0 0 0 0.707543 0 0 0 0 0.875 0 0 0 0.35 0"/>
<feBlend mode="normal" in2="shape" result="effect1_innerShadow_1_108"/>
</filter>
<filter id="filter2_i_1_108" x="-4" y="21" width="62.2716" height="38.8073" filterUnits="userSpaceOnUse" color-interpolation-filters="sRGB">
<feFlood flood-opacity="0" result="BackgroundImageFix"/>
<feBlend mode="normal" in="SourceGraphic" in2="BackgroundImageFix" result="shape"/>
<feColorMatrix in="SourceAlpha" type="matrix" values="0 0 0 0 0 0 0 0 0 0 0 0 0 0 0 0 0 0 127 0" result="hardAlpha"/>
<feOffset dx="-4" dy="4"/>
<feGaussianBlur stdDeviation="8"/>
<feComposite in2="hardAlpha" operator="arithmetic" k2="-1" k3="1"/>
<feColorMatrix type="matrix" values="0 0 0 0 0.470313 0 0 0 0 0.707543 0 0 0 0 0.875 0 0 0 0.35 0"/>
<feBlend mode="normal" in2="shape" result="effect1_innerShadow_1_108"/>
</filter>
</defs>
</svg>
