<svg width="64" height="64" viewBox="0 0 64 64" fill="none" xmlns="http://www.w3.org/2000/svg">
<g clip-path="url(#clip0_1_124)">
<g filter="url(#filter0_i_1_124)">
<path d="M20.0679 33.323L2.19384 51.1993C-0.731281 54.1244 -0.731281 58.8812 2.19384 61.8062C5.11897 64.7313 9.87572 64.7313 12.8007 61.8062L30.6744 43.9304L20.0679 33.323ZM11.0392 55.9873C10.3067 56.7198 9.12047 56.7198 8.38797 55.9873C7.6556 55.2549 7.6556 54.0684 8.38797 53.336L19.7605 41.9614C20.4929 41.229 21.6795 41.229 22.4117 41.9614C23.1441 42.6938 23.1441 43.8803 22.4117 44.6126L11.0392 55.9873Z" fill="#03121D"/>
<path d="M63.4484 3.78165L60.2161 0.549269C59.6077 -0.0591063 58.6636 -0.175356 57.9258 0.267019L47.9824 6.2324C46.9362 6.86002 46.7586 8.3034 47.6211 9.16603L48.4126 9.95727L24.2956 34.0226L29.6 39.327L53.7169 15.2617L54.8318 16.3768C55.6944 17.2392 57.1379 17.0617 57.7654 16.0154L63.7308 6.07202C64.1731 5.33415 64.0568 4.39002 63.4484 3.78165Z" fill="#03121D"/>
</g>
<path d="M2.26456 51.27L20.0679 33.4644L30.5329 43.9304L12.73 61.7355C9.84407 64.6215 5.15063 64.6215 2.26456 61.7355L2.19384 61.8062L2.26455 61.7354C-0.621517 58.8495 -0.621519 54.1561 2.26456 51.27ZM24.4371 34.0227L48.4832 10.0281L48.5541 9.95734L48.4833 9.88655L47.6918 9.09532C46.8753 8.27869 47.0434 6.9123 48.0339 6.31815L57.9772 0.352782C58.6757 -0.0660036 59.5694 0.0440483 60.1454 0.61998L63.3777 3.85236C63.9537 4.42829 64.0637 5.32207 63.645 6.02061L57.6797 15.964L57.7628 16.0138L57.6797 15.964C57.0857 16.9544 55.7192 17.1225 54.9025 16.3061L53.7877 15.191L53.717 15.1203L53.6463 15.1909L29.6001 39.1856L24.4371 34.0227ZM8.31726 56.058C9.08882 56.8295 10.3384 56.8295 11.1099 56.058L22.4824 44.6834C23.2539 43.9119 23.2539 42.6621 22.4824 41.8907C21.7111 41.1193 20.4612 41.1193 19.6898 41.8907L8.31726 53.2653C7.54583 54.0367 7.54583 55.2866 8.31726 56.058Z" stroke="#040A0F" stroke-width="0.2"/>
<path d="M52.6667 38.3334C50.7548 38.3334 48.8858 38.9003 47.2962 39.9625C45.7065 41.0247 44.4675 42.5344 43.7358 44.3008C43.0042 46.0671 42.8128 48.0108 43.1857 49.8859C43.5587 51.7611 44.4794 53.4835 45.8313 54.8354C47.1832 56.1873 48.9056 57.108 50.7808 57.481C52.6559 57.854 54.5996 57.6625 56.3659 56.9309C58.1323 56.1992 59.642 54.9602 60.7042 53.3706C61.7664 51.7809 62.3333 49.9119 62.3333 48C62.3298 45.4374 61.3102 42.9807 59.4981 41.1686C57.6861 39.3565 55.2293 38.3369 52.6667 38.3334ZM55.7067 51.04C55.5192 51.2273 55.265 51.3325 55 51.3325C54.735 51.3325 54.4808 51.2273 54.2933 51.04L52 48.7067C51.8124 48.5194 51.7069 48.2652 51.7067 48V44C51.7067 43.7348 51.812 43.4805 51.9996 43.2929C52.1871 43.1054 52.4415 43 52.7067 43C52.9719 43 53.2262 43.1054 53.4138 43.2929C53.6013 43.4805 53.7067 43.7348 53.7067 44V47.5867L55.7467 49.6267C55.9287 49.8195 56.0268 50.0766 56.0193 50.3417C56.0118 50.6067 55.8993 50.8579 55.7067 51.04Z" fill="#EB211A"/>
<path d="M40.6667 49H34.6667C34.4014 49 34.1471 48.8946 33.9595 48.7071C33.772 48.5196 33.6667 48.2652 33.6667 48C33.6667 47.7348 33.772 47.4804 33.9595 47.2929C34.1471 47.1054 34.4014 47 34.6667 47H40.6667C40.9319 47 41.1862 47.1054 41.3738 47.2929C41.5613 47.4804 41.6667 47.7348 41.6667 48C41.6667 48.2652 41.5613 48.5196 41.3738 48.7071C41.1862 48.8946 40.9319 49 40.6667 49Z" fill="#EB211A"/>
<path d="M42 43.6667H38.6667C38.4014 43.6667 38.1471 43.5614 37.9595 43.3739C37.772 43.1863 37.6667 42.932 37.6667 42.6667C37.6667 42.4015 37.772 42.1472 37.9595 41.9596C38.1471 41.7721 38.4014 41.6667 38.6667 41.6667H42C42.2652 41.6667 42.5196 41.7721 42.7071 41.9596C42.8946 42.1472 43 42.4015 43 42.6667C43 42.932 42.8946 43.1863 42.7071 43.3739C42.5196 43.5614 42.2652 43.6667 42 43.6667Z" fill="#EB211A"/>
<path d="M42 54.3334H38.6667C38.4014 54.3334 38.1471 54.228 37.9595 54.0405C37.772 53.8529 37.6667 53.5986 37.6667 53.3334C37.6667 53.0682 37.772 52.8138 37.9595 52.6263C38.1471 52.4387 38.4014 52.3334 38.6667 52.3334H42C42.2652 52.3334 42.5196 52.4387 42.7071 52.6263C42.8946 52.8138 43 53.0682 43 53.3334C43 53.5986 42.8946 53.8529 42.7071 54.0405C42.5196 54.228 42.2652 54.3334 42 54.3334Z" fill="#EB211A"/>
</g>
<defs>
<filter id="filter0_i_1_124" x="-4" y="0" width="67.9977" height="68" filterUnits="userSpaceOnUse" color-interpolation-filters="sRGB">
<feFlood flood-opacity="0" result="BackgroundImageFix"/>
<feBlend mode="normal" in="SourceGraphic" in2="BackgroundImageFix" result="shape"/>
<feColorMatrix in="SourceAlpha" type="matrix" values="0 0 0 0 0 0 0 0 0 0 0 0 0 0 0 0 0 0 127 0" result="hardAlpha"/>
<feOffset dx="-4" dy="4"/>
<feGaussianBlur stdDeviation="8"/>
<feComposite in2="hardAlpha" operator="arithmetic" k2="-1" k3="1"/>
<feColorMatrix type="matrix" values="0 0 0 0 0.470313 0 0 0 0 0.707543 0 0 0 0 0.875 0 0 0 0.35 0"/>
<feBlend mode="normal" in2="shape" result="effect1_innerShadow_1_124"/>
</filter>
<clipPath id="clip0_1_124">
<rect width="64" height="64" fill="white"/>
</clipPath>
</defs>
</svg>
