<svg width="65" height="64" viewBox="0 0 65 64" fill="none" xmlns="http://www.w3.org/2000/svg">
<g filter="url(#filter0_i_1_116)">
<path d="M48.43 43.74L45.608 56.842C45.21 58.684 43.582 60 41.698 60H31.114C26.808 60 24.956 58.39 22.5 56H19.5V40H21.566C26.306 36.774 28.844 32.138 30.25 27.496C30.484 26.728 31.14 26.138 31.942 26.078C35.798 25.788 38.648 29.338 37.67 32.946C36.998 35.426 36.368 37.646 35.116 39.998H45.408C47.378 40 48.844 41.816 48.43 43.74Z" fill="#03121D"/>
</g>
<path d="M19.6 55.9V40.1H21.566H21.5968L21.6223 40.0827C26.3869 36.8399 28.9354 32.1811 30.3457 27.5252C30.5692 26.7915 31.1937 26.2343 31.9495 26.1778L31.9495 26.1778C35.7363 25.893 38.5335 29.3781 37.5735 32.9199C36.9015 35.3998 36.2739 37.61 35.0277 39.951L34.9495 40.098H35.116H45.4079C47.3143 40.1 48.7328 41.8573 48.3322 43.719L45.5103 56.8209C45.1222 58.617 43.5348 59.9 41.698 59.9H31.114C28.9747 59.9 27.4519 59.5004 26.1605 58.8082C24.8662 58.1144 23.7982 57.1239 22.5697 55.9284L22.5406 55.9H22.5H19.6Z" stroke="#040A0F" stroke-width="0.2"/>
<path d="M33.038 5.18802L35.45 10.076C35.538 10.254 35.706 10.376 35.902 10.404L41.296 11.188C41.788 11.26 41.984 11.864 41.628 12.212L37.724 16.018C37.582 16.156 37.518 16.354 37.552 16.55L38.474 21.922C38.558 22.412 38.044 22.786 37.604 22.554L32.778 20.018C32.604 19.926 32.394 19.926 32.22 20.018L27.394 22.554C26.954 22.786 26.44 22.412 26.524 21.922L27.446 16.55C27.48 16.356 27.414 16.156 27.274 16.018L23.37 12.212C23.014 11.864 23.21 11.26 23.702 11.188L29.096 10.404C29.292 10.376 29.46 10.252 29.548 10.076L31.96 5.18802C32.182 4.74202 32.818 4.74202 33.038 5.18802Z" fill="#EB211A"/>
<path d="M51.038 9.97196L53.45 14.86C53.538 15.038 53.706 15.16 53.902 15.188L59.296 15.972C59.788 16.044 59.984 16.648 59.628 16.996L55.726 20.8C55.584 20.938 55.52 21.136 55.554 21.332L56.476 26.704C56.56 27.194 56.046 27.568 55.606 27.336L50.78 24.8C50.606 24.708 50.396 24.708 50.222 24.8L45.396 27.336C44.956 27.568 44.442 27.194 44.526 26.704L45.448 21.332C45.482 21.138 45.416 20.938 45.276 20.8L41.372 16.994C41.016 16.646 41.212 16.042 41.704 15.97L47.098 15.186C47.294 15.158 47.462 15.034 47.55 14.858L49.962 9.96996C50.182 9.52596 50.818 9.52596 51.038 9.97196Z" fill="#EB211A"/>
<path d="M15.038 9.97195L17.45 14.86C17.538 15.038 17.706 15.16 17.902 15.188L23.296 15.972C23.788 16.044 23.984 16.648 23.628 16.996L19.726 20.8C19.584 20.938 19.52 21.136 19.554 21.332L20.476 26.704C20.56 27.194 20.046 27.568 19.606 27.336L14.78 24.8C14.606 24.708 14.396 24.708 14.222 24.8L9.396 27.336C8.956 27.568 8.442 27.194 8.526 26.704L9.448 21.332C9.482 21.138 9.416 20.938 9.276 20.8L5.37 16.996C5.014 16.648 5.21 16.044 5.702 15.972L11.096 15.188C11.294 15.16 11.462 15.036 11.55 14.86L13.962 9.97195C14.182 9.52595 14.818 9.52595 15.038 9.97195Z" fill="#EB211A"/>
<g filter="url(#filter1_i_1_116)">
<path d="M9.5 38H15.5C16.052 38 16.5 38.448 16.5 39V57C16.5 57.552 16.052 58 15.5 58H9.5C8.948 58 8.5 57.552 8.5 57V39C8.5 38.448 8.948 38 9.5 38Z" fill="#03121D"/>
</g>
<path d="M9.5 38.1H15.5C15.9968 38.1 16.4 38.5032 16.4 39V57C16.4 57.4968 15.9968 57.9 15.5 57.9H9.5C9.00323 57.9 8.6 57.4968 8.6 57V39C8.6 38.5032 9.00323 38.1 9.5 38.1Z" stroke="#040A0F" stroke-width="0.2"/>
<defs>
<filter id="filter0_i_1_116" x="15.5" y="26.0614" width="33.0003" height="37.9386" filterUnits="userSpaceOnUse" color-interpolation-filters="sRGB">
<feFlood flood-opacity="0" result="BackgroundImageFix"/>
<feBlend mode="normal" in="SourceGraphic" in2="BackgroundImageFix" result="shape"/>
<feColorMatrix in="SourceAlpha" type="matrix" values="0 0 0 0 0 0 0 0 0 0 0 0 0 0 0 0 0 0 127 0" result="hardAlpha"/>
<feOffset dx="-4" dy="4"/>
<feGaussianBlur stdDeviation="8"/>
<feComposite in2="hardAlpha" operator="arithmetic" k2="-1" k3="1"/>
<feColorMatrix type="matrix" values="0 0 0 0 0.470313 0 0 0 0 0.707543 0 0 0 0 0.875 0 0 0 0.35 0"/>
<feBlend mode="normal" in2="shape" result="effect1_innerShadow_1_116"/>
</filter>
<filter id="filter1_i_1_116" x="4.5" y="38" width="12" height="24" filterUnits="userSpaceOnUse" color-interpolation-filters="sRGB">
<feFlood flood-opacity="0" result="BackgroundImageFix"/>
<feBlend mode="normal" in="SourceGraphic" in2="BackgroundImageFix" result="shape"/>
<feColorMatrix in="SourceAlpha" type="matrix" values="0 0 0 0 0 0 0 0 0 0 0 0 0 0 0 0 0 0 127 0" result="hardAlpha"/>
<feOffset dx="-4" dy="4"/>
<feGaussianBlur stdDeviation="8"/>
<feComposite in2="hardAlpha" operator="arithmetic" k2="-1" k3="1"/>
<feColorMatrix type="matrix" values="0 0 0 0 0.470313 0 0 0 0 0.707543 0 0 0 0 0.875 0 0 0 0.35 0"/>
<feBlend mode="normal" in2="shape" result="effect1_innerShadow_1_116"/>
</filter>
</defs>
</svg>
