<svg width="24" height="24" viewBox="0 0 24 24" fill="none" xmlns="http://www.w3.org/2000/svg">
<rect width="24" height="24" rx="5" fill="#EBEDEC"/>
<path d="M16.4304 13.4772C16.4304 13.4772 17.4492 14.4828 17.7 14.9496C17.7072 14.9592 17.7108 14.9688 17.7132 14.9736C17.8152 15.1452 17.8392 15.2784 17.7888 15.378C17.7048 15.5436 17.4168 15.6252 17.3184 15.6324H15.5184C15.3936 15.6324 15.132 15.6 14.8152 15.3816C14.5716 15.2112 14.3316 14.9316 14.0976 14.6592C13.7484 14.2536 13.446 13.9032 13.1412 13.9032C13.1025 13.9031 13.064 13.9092 13.0272 13.9212C12.7968 13.9956 12.5016 14.3244 12.5016 15.2004C12.5016 15.474 12.2856 15.6312 12.1332 15.6312H11.3088C11.028 15.6312 9.56517 15.5328 8.26917 14.166C6.68277 12.492 5.25477 9.13435 5.24277 9.10315C5.15277 8.88595 5.33877 8.76955 5.54157 8.76955H7.35957C7.60197 8.76955 7.68117 8.91715 7.73637 9.04795C7.80117 9.20035 8.03877 9.80635 8.42877 10.488C9.06117 11.5992 9.44877 12.0504 9.75957 12.0504C9.81785 12.0497 9.87509 12.0348 9.92637 12.0072C10.332 11.7816 10.2564 10.3356 10.2384 10.0356C10.2384 9.97915 10.2372 9.38875 10.0296 9.10555C9.88077 8.90035 9.62757 8.82235 9.47397 8.79355C9.53614 8.70777 9.61805 8.63821 9.71277 8.59075C9.99117 8.45155 10.4928 8.43115 10.9908 8.43115H11.268C11.808 8.43835 11.9472 8.47315 12.1428 8.52235C12.5388 8.61715 12.5472 8.87275 12.5124 9.74755C12.5016 9.99595 12.4908 10.2768 12.4908 10.608C12.4908 10.68 12.4872 10.7568 12.4872 10.8384C12.4752 11.2836 12.4608 11.7888 12.7752 11.9964C12.8162 12.0221 12.8636 12.0358 12.912 12.036C13.0212 12.036 13.35 12.036 14.2404 10.5084C14.515 10.0167 14.7536 9.50572 14.9544 8.97955C14.9724 8.94835 15.0252 8.85235 15.0876 8.81515C15.1336 8.79168 15.1847 8.77973 15.2364 8.78035H17.3736C17.6064 8.78035 17.766 8.81515 17.796 8.90515C17.8488 9.04795 17.7864 9.48355 16.8108 10.8048L16.3752 11.3796C15.4908 12.5388 15.4908 12.5976 16.4304 13.4772Z" fill="#111111"/>
</svg>
